<svg xmlns="http://www.w3.org/2000/svg" viewBox="0 0 128 128" role="img" aria-labelledby="title">
  <title id="title">PSPSO gear mark</title>
  <g fill="#20272b">
    <rect x="57" y="2" width="14" height="28" rx="2"/>
    <rect x="57" y="2" width="14" height="28" rx="2" transform="rotate(30 64 64)"/>
    <rect x="57" y="2" width="14" height="28" rx="2" transform="rotate(60 64 64)"/>
    <rect x="57" y="2" width="14" height="28" rx="2" transform="rotate(90 64 64)"/>
    <rect x="57" y="2" width="14" height="28" rx="2" transform="rotate(120 64 64)"/>
    <rect x="57" y="2" width="14" height="28" rx="2" transform="rotate(150 64 64)"/>
    <rect x="57" y="2" width="14" height="28" rx="2" transform="rotate(180 64 64)"/>
    <rect x="57" y="2" width="14" height="28" rx="2" transform="rotate(210 64 64)"/>
    <rect x="57" y="2" width="14" height="28" rx="2" transform="rotate(240 64 64)"/>
    <rect x="57" y="2" width="14" height="28" rx="2" transform="rotate(270 64 64)"/>
    <rect x="57" y="2" width="14" height="28" rx="2" transform="rotate(300 64 64)"/>
    <rect x="57" y="2" width="14" height="28" rx="2" transform="rotate(330 64 64)"/>
    <circle cx="64" cy="64" r="45"/>
  </g>
  <circle cx="64" cy="64" r="29" fill="#ffbd00"/>
  <circle cx="64" cy="64" r="12" fill="#20272b"/>
</svg>
